#!OML:ASF I:\Random Stuff\random\construction\7_22_03\Session 2\subj1.ASF
:FULLY-SPECIFIED
:DEGREES
548
root -9.20444 17.7394 1.16934 4.43258 63.2107 -4.58279
lowerback 0.679143 1.31477 2.68391
upperback -2.35964 1.85398 0.93028
thorax -2.75039 0.884927 -0.603568
lowerneck -24.4212 1.38275 1.17621
upperneck 32.4323 1.69935 0.653933
head 15.5327 1.10134 0.458376
rclavicle 5.23673e-014 1.15295e-014
rhumerus -36.3088 -10.7319 -72.2549
rradius 26.1793
rwrist 6.11492
rhand -16.6029 16.6289
rfingers 7.12502
rthumb 9.61853 -13.1316
lclavicle 5.23673e-014 1.15295e-014
lhumerus -32.0423 -6.73803 90.5825
lradius 37.3451
lwrist 33.7125
lhand -19.368 61.881
lfingers 7.12502
lthumb -173.05 88.253
rfemur -10.2031 14.5068 19.03
rtibia 12.6324
rfoot -8.75247 -21.8101
rtoes -13.053
lfemur -17.3531 -20.0259 -11.2162
ltibia 21.8299
lfoot -14.7787 12.9657
ltoes -33.4007
549
root -9.19448 17.7301 1.15696 3.15939 62.8804 -5.64095
lowerback 0.75218 1.36095 2.88736
upperback -2.27722 1.92463 1.07877
thorax -2.70347 0.918816 -0.567528
lowerneck -24.416 1.35481 1.16711
upperneck 32.5662 1.67435 0.637106
head 15.5952 1.089 0.449779
rclavicle -1.12438e-014 -5.96354e-016
rhumerus -36.1422 -8.55252 -73.9153
rradius 28.7796
rwrist 3.35463
rhand -16.8958 16.5738
rfingers 7.12502
rthumb 9.33586 -13.1994
lclavicle -1.12438e-014 -5.96354e-016
lhumerus -32.4735 -7.79864 91.5605
lradius 39.4989
lwrist 34.1713
lhand -18.8761 61.1667
lfingers 7.12502
lthumb -172.575 88.9836
rfemur -9.73139 14.9183 19.5969
rtibia 12.3042
rfoot -8.22217 -21.8779
rtoes -13.9763
lfemur -16.9852 -19.7399 -10.8687
ltibia 21.9912
lfoot -14.8769 12.9382
ltoes -33.117
550
root -9.18543 17.7296 1.1259 3.36521 62.6238 -5.32852
lowerback 0.695664 1.36727 2.67826
upperback -2.27004 1.92419 1.02781
thorax -2.66877 0.922706 -0.50145
lowerneck -24.3691 1.3482 1.20496
upperneck 32.5585 1.6903 0.525863
head 15.5826 1.08345 0.398488
rclavicle -3.2141e-014 -1.23246e-014
rhumerus -35.9799 -6.64475 -75.3293
rradius 31.3679
rwrist 1.40617
rhand -17.3913 16.4229
rfingers 7.12502
rthumb 8.85774 -13.3712
lclavicle -3.2141e-014 -1.23246e-014
lhumerus -32.8842 -8.78412 92.4922
lradius 41.6163
lwrist 34.4556
lhand -18.3629 60.6347
lfingers 7.12502
lthumb -172.08 89.5336
rfemur -9.54971 15.1503 19.329
rtibia 12.0071
rfoot -7.83727 -21.8685
rtoes -14.4236
lfemur -16.8987 -19.69 -11.1792
ltibia 22.1127
lfoot -14.9537 13.0019
ltoes -32.8431
551
root -9.18139 17.7302 1.09551 3.50203 62.3977 -5.12821
lowerback 0.69578 1.35507 2.52371
upperback -2.28849 1.90369 0.986427
thorax -2.69164 0.914751 -0.457342
lowerneck -24.2605 1.32867 1.21535
upperneck 32.4845 1.67566 0.472994
head 15.5236 1.0701 0.369094
rclavicle -7.78987e-015 -2.38542e-014
rhumerus -35.8421 -4.8687 -76.6209
rradius 33.9013
rwrist 0.0151209
rhand -17.8287 16.3157
rfingers 7.12502
rthumb 8.43563 -13.4958
lclavicle -7.78987e-015 -2.38542e-014
lhumerus -33.2674 -9.69347 93.2974
lradius 43.5927
lwrist 34.5321
lhand -17.801 60.2986
lfingers 7.12502
lthumb -171.538 89.891
rfemur -9.45103 15.3435 19.116
rtibia 11.7555
rfoot -7.56537 -21.7813
rtoes -14.0309
lfemur -16.8689 -19.825 -11.3785
ltibia 22.2122
lfoot -14.9878 13.2556
ltoes -32.5507
552
root -9.17592 17.7286 1.07006 3.45542 62.162 -5.07446
lowerback 0.703393 1.35923 2.44614
upperback -2.28135 1.90596 0.940327
thorax -2.68924 0.916825 -0.461476
lowerneck -24.2018 1.30514 1.12033
upperneck 32.477 1.61813 0.644166
head 15.5035 1.06003 0.445776
rclavicle -2.70471e-014 -1.09332e-014
rhumerus -35.6225 -3.58719 -77.7163
rradius 36.1445
rwrist -0.672539
rhand -18.4269 16.4753
rfingers 7.12502
rthumb 7.85829 -13.3586
lclavicle -2.70471e-014 -1.09332e-014
lhumerus -33.6365 -10.643 94.036
lradius 45.4263
lwrist 34.4445
lhand -17.3748 59.9721
lfingers 7.12502
lthumb -171.126 269.765
rfemur -9.36106 15.5674 19.0175
rtibia 11.6809
rfoot -7.38624 -21.7344
rtoes -13.9325
lfemur -16.7222 -20.0125 -11.5075
ltibia 22.2182
lfoot -14.9804 13.5999
ltoes -32.3903
553
root -9.16628 17.7265 1.04798 3.25087 61.8515 -5.17065
lowerback 0.654496 1.37415 2.42788
upperback -2.23159 1.92196 0.935878
thorax -2.61038 0.926116 -0.454204
lowerneck -24.2213 1.29476 1.0697
upperneck 32.474 1.60566 0.687841
head 15.5054 1.05413 0.470444
rclavicle -1.00138e-014 -1.21259e-014
rhumerus -35.1494 -3.03698 -78.4722
rradius 37.8899
rwrist -0.44112
rhand -18.669 17.0918
rfingers 7.12502
rthumb 7.6246 -12.7508
lclavicle -1.00138e-014 -1.21259e-014
lhumerus -33.9347 -11.5314 94.7407
lradius 46.9519
lwrist 34.2419
lhand -17.1108 59.2877
lfingers 7.12502
lthumb -170.872 269.07
rfemur -9.18232 15.8785 19.0069
rtibia 11.5194
rfoot -7.18896 -21.7128
rtoes -13.9662
lfemur -16.5331 -20.0299 -11.5952
ltibia 22.2742
lfoot -15.008 13.8711
ltoes -32.382
554
root -9.15859 17.7253 1.0256 3.08304 61.5228 -5.2499
lowerback 0.641023 1.3741 2.40076
upperback -2.22322 1.92096 0.9517
thorax -2.59556 0.926552 -0.422321
lowerneck -24.1761 1.26632 1.07228
upperneck 32.4695 1.60829 0.564166
head 15.4944 1.03643 0.417386
rclavicle -3.86636e-014 -6.16232e-015
rhumerus -34.7362 -2.48166 -79.1507
rradius 39.505
rwrist 0.0362567
rhand -18.7048 17.6555
rfingers 7.12502
rthumb 7.59013 -12.1883
lclavicle -3.86636e-014 -6.16232e-015
lhumerus -34.2663 -12.3212 95.3738
lradius 48.2136
lwrist 34.0675
lhand -16.8719 58.6665
lfingers 7.12502
lthumb -170.641 268.439
rfemur -9.01667 16.2021 18.9812
rtibia 11.3195
rfoot -7.03248 -21.6852
rtoes -14.0208
lfemur -16.3808 -19.8754 -11.697
ltibia 22.3576
lfoot -15.0415 14.0688
ltoes -32.6641
555
root -9.15479 17.7239 1.00491 2.90143 61.2528 -5.34261
lowerback 0.683934 1.39037 2.37844
upperback -2.23065 1.94388 0.956612
thorax -2.62771 0.938084 -0.406737
lowerneck -24.156 1.23866 1.08742
upperneck 32.5842 1.53255 0.651836
head 15.5434 1.02165 0.438303
rclavicle 2.58979e-014 -5.76476e-015
rhumerus -34.5468 -1.42043 -79.961
rradius 41.3128
rwrist -0.0874071
rhand -19.0163 17.7878
rfingers 7.12502
rthumb 7.28939 -12.0666
lclavicle 2.58979e-014 -5.76476e-015
lhumerus -34.5813 -13.2539 95.9705
lradius 49.2846
lwrist 33.9843
lhand -16.6587 58.4841
lfingers 7.12502
lthumb -170.435 268.247
rfemur -8.85003 16.4756 18.9842
rtibia 11.1309
rfoot -6.89516 -21.6756
rtoes -14.0465
lfemur -16.2453 -19.5795 -11.7799
ltibia 22.4284
lfoot -15.0835 14.0589
ltoes -32.7817
556
root -9.14818 17.7229 0.988652 2.8399 61.0088 -5.34265
lowerback 0.615113 1.41391 2.30087
upperback -2.19807 1.97018 0.951041
thorax -2.55699 0.953577 -0.367438
lowerneck -24.331 1.15973 0.918024
upperneck 32.7962 1.3708 0.967829
head 15.6794 0.981788 0.574312
rclavicle 2.03319e-014 -1.13307e-014
rhumerus -34.3681 -0.225198 -80.7648
rradius 43.0483
rwrist -0.513262
rhand -19.3338 17.9186
rfingers 7.12502
rthumb 6.98291 -11.9462
lclavicle 2.03319e-014 -1.13307e-014
lhumerus -34.7951 -14.1257 96.4601
lradius 50.1786
lwrist 33.8957
lhand -16.3989 58.6278
lfingers 7.12502
lthumb -170.185 268.379
rfemur -8.72203 16.7214 18.9411
rtibia 10.9469
rfoot -6.70116 -21.6807
rtoes -14.2887
lfemur -16.1307 -19.4309 -11.8805
ltibia 22.4799
lfoot -15.1468 14.1347
ltoes -32.7443
